<svg xmlns="http://www.w3.org/2000/svg" xmlns:xlink="http://www.w3.org/1999/xlink" width="341px" height="51px" viewBox="0 0 341 51" version="1.1">
    <!-- Generator: Sketch 45.2 (43514) - http://www.bohemiancoding.com/sketch -->
    <title>Wordmark White</title>
    <desc>Created with Sketch.</desc>
    <defs/>
    <g id="Symbols" stroke="none" stroke-width="1" fill="none" fill-rule="evenodd">
        <g id="Footer" transform="translate(-224.000000, -50.000000)">
            <g id="Wordmark-White">
                <g transform="translate(225.000000, 50.000000)">
                    <path d="M78.3511858,14.6888589 C77.8579842,15.2086175 77.7706324,15.7851621 77.7706324,18.5249179 L77.7706324,23.0811565 C77.7706324,26.0520646 77.6550593,27.4643649 77.6254941,27.7816982 C77.2774308,30.2622428 76.0592095,32.9438765 70.5190909,32.9438765 C65.9364822,32.9438765 64.2835178,31.1561207 63.6451779,29.1659396 C63.3260079,28.1284267 63.2971146,26.6286091 63.2971146,25.0132154 L63.2971146,17.5729179 C63.2971146,16.2174035 63.2971146,15.3235256 62.8905929,14.8338302 C62.6009881,14.4583747 62.0493281,14.1697684 61.0058103,13.9974063 L61.0058103,13.6219509 C62.1944664,13.7088 63.5000395,13.737527 64.5442292,13.737527 C65.588419,13.737527 66.8933202,13.737527 68.17,13.6219509 L68.17,13.9974063 C67.7634783,14.0835874 66.777747,14.3140716 66.4001186,14.6888589 C65.9075889,15.2373446 65.8202372,15.8426161 65.8202372,18.5536449 L65.8202372,25.2730947 C65.8202372,29.1372126 66.0816206,31.8195144 70.8093676,31.8195144 C75.5666798,31.8195144 75.7689328,29.1084856 75.7689328,25.2443677 L75.7689328,17.0538274 C75.7689328,15.9869193 75.7400395,15.2660716 75.3919763,14.8044351 C75.1023715,14.4583747 74.5218182,14.1697684 73.4776285,13.9974063 L73.4776285,13.6219509 C74.6669565,13.7088 75.7111462,13.737527 76.755336,13.737527 C77.7995257,13.737527 78.8437154,13.737527 80.1197233,13.6219509 L80.1197233,13.9974063 C79.7427668,14.0835874 78.7281423,14.3140716 78.3511858,14.6888589" id="Fill-1" fill="#FFFFFF"/>
                    <path d="M91.7496047,32.6265432 C91.1697233,32.6265432 89.8930435,32.6559382 88.6748221,32.7133923 L88.6748221,32.3386049 C89.2264822,32.2517558 89.632332,32.0787256 89.8930435,31.8482414 C90.4158103,31.3291509 90.4735968,30.406546 90.5024901,29.0216365 C90.5313834,28.3876379 90.5313834,27.3494568 90.5313834,26.2825488 C90.5313834,24.9557614 90.4735968,24.6097011 90.4158103,24.2061867 C90.1833202,22.4464898 89.0228854,21.6969151 87.3699209,21.6969151 C86.3835178,21.6969151 85.6296047,21.8124912 84.904585,22.2447326 L84.904585,28.7624253 C84.904585,31.1561207 85.0497233,31.2135747 85.1948617,31.5021811 C85.4266798,31.9925446 86.2968379,32.2230288 86.7604743,32.3386049 L86.7604743,32.7133923 C85.7458498,32.6559382 84.6432016,32.6265432 83.5412253,32.6265432 C82.9606719,32.6265432 81.6268775,32.6559382 80.4960079,32.7133923 L80.4960079,32.3386049 C81.3077075,32.1943018 81.8009091,31.9638175 82.1200791,31.5890302 C82.5837154,31.0692716 82.6421739,30.1753937 82.6421739,27.1476996 L82.6421739,23.9750344 C82.6421739,22.4758849 82.5259289,21.4951579 80.5537945,21.1778246 L80.5537945,20.8898863 C81.4239526,20.8604912 82.5259289,20.7743102 83.5412253,20.630007 C83.9470751,20.5718849 84.4113834,20.4282498 84.7594466,20.2552196 L84.9334783,20.3707958 L84.8467984,21.9567944 C85.9487747,20.8317642 87.3699209,20.3707958 88.7621739,20.3707958 C90.7343083,20.3707958 92.097668,21.2065516 92.5908696,22.9655804 C92.7071146,23.4272168 92.7937945,24.4079439 92.7937945,25.1000646 L92.7937945,28.7911523 C92.7937945,30.7232112 92.852253,31.0692716 93.1418577,31.473454 C93.4899209,31.9638175 94.1571542,32.1655747 95.0850988,32.3386049 L95.0850988,32.7133923 C94.3022925,32.6559382 92.852253,32.6265432 91.7496047,32.6265432" id="Fill-2" fill="#FFFFFF"/>
                    <path d="M99.1449407,16.5347368 C98.2747826,16.5347368 97.6942292,15.9869193 97.6942292,15.1217684 C97.6942292,14.2278905 98.3325692,13.7088 99.2027273,13.7088 C100.043992,13.7088 100.653439,14.2278905 100.653439,15.0930414 C100.653439,16.0156463 100.043992,16.5347368 99.1449407,16.5347368 Z M99.2316206,32.6265432 C98.6517391,32.6265432 97.1432411,32.6559382 96.0123715,32.7133923 L96.0123715,32.3386049 C96.8536364,32.1943018 97.346166,31.9638175 97.6364427,31.5890302 C98.0133992,31.1273937 98.1585375,30.8387874 98.1585375,26.9452744 L98.1585375,23.9750344 C98.1585375,22.4758849 98.0422925,21.4951579 96.0701581,21.1778246 L96.0701581,20.8898863 C97.1721344,20.8030372 98.2747826,20.8030372 99.4056522,20.5718849 C99.7537154,20.4857039 100.130672,20.3414007 100.449842,20.1970975 L100.623874,20.3126737 C100.449842,22.2160056 100.420949,25.7627902 100.420949,27.2338807 L100.420949,29.5413951 C100.420949,30.3196968 100.449842,31.0692716 100.797905,31.5021811 C101.117075,31.9056954 101.696957,32.1655747 102.712253,32.3386049 L102.712253,32.7133923 C101.929447,32.6559382 100.333597,32.6265432 99.2316206,32.6265432 L99.2316206,32.6265432 Z" id="Fill-3" fill="#FFFFFF"/>
                    <path d="M113.966522,22.6776421 L109.760198,32.7708463 L108.193913,32.7708463 L104.365217,22.6776421 C104.046047,21.8699453 103.814229,21.1490975 102.944071,20.9473404 L102.944071,20.5718849 C103.495059,20.630007 104.887312,20.658734 105.525652,20.658734 C106.366245,20.658734 107.497787,20.658734 108.107233,20.5718849 L108.107233,20.9473404 C107.063043,21.2359467 106.830553,21.5526119 106.830553,22.0142484 C106.830553,22.3603088 106.975692,22.8506723 107.178617,23.3984898 L108.773794,27.9260014 C109.151423,28.9929095 109.412134,29.8293333 109.643953,30.7232112 C109.702411,30.5789081 110.166047,29.1372126 110.369644,28.5319411 L112.138854,23.3123088 C112.312885,22.7932182 112.457352,22.2734596 112.457352,21.9273993 C112.457352,21.2934007 111.87747,21.1490975 111.181344,20.9473404 L111.181344,20.5718849 C111.616759,20.630007 112.777194,20.658734 113.269723,20.658734 C113.995415,20.658734 114.894466,20.630007 115.387668,20.5718849 L115.387668,20.9473404 C114.516838,21.1490975 114.343478,21.7830961 113.966522,22.6776421" id="Fill-4" fill="#FFFFFF"/>
                    <path d="M123.710949,24.1767916 C123.710949,22.1585516 123.014822,21.2934007 121.419644,21.2934007 C119.62087,21.2934007 118.635138,22.4464898 118.373755,24.8408533 L123.710949,24.3210947 L123.710949,24.1767916 Z M118.315968,25.4748519 C118.315968,25.4748519 118.287075,25.9077614 118.287075,26.1095186 C118.287075,29.454546 119.62087,31.473454 123.188854,31.473454 C124.145692,31.473454 124.986957,31.2997558 125.799328,30.9543635 L125.944466,31.2135747 C125.074308,32.2517558 123.536917,32.8576954 121.651462,32.8576954 C118.055257,32.8576954 115.908419,30.6083032 115.908419,26.8016393 C115.908419,22.9949754 118.199723,20.4569768 121.622569,20.4569768 C123.449565,20.4569768 124.84249,21.0916435 125.596403,22.2734596 C126.089605,23.0237025 126.262964,23.8307312 126.262964,25.2156407 L126.262964,25.4748519 L118.315968,25.4748519 L118.315968,25.4748519 Z" id="Fill-5" fill="#FFFFFF"/>
                    <path d="M135.834032,23.1392786 C135.225257,23.1392786 134.703162,22.8219453 134.703162,22.1585516 C134.703162,21.9273993 134.818735,21.6394611 134.818735,21.6394611 C133.832332,21.6394611 132.846601,21.9273993 132.121581,22.4464898 L132.121581,28.8773333 C132.121581,30.7232112 132.324506,30.9256365 132.469644,31.1848477 C132.701462,31.5890302 133.252451,32.0787256 134.93498,32.3386049 L134.93498,32.7133923 C133.803439,32.6559382 132.962846,32.6265432 131.164071,32.6265432 C130.033202,32.6265432 128.872767,32.6559382 127.713004,32.7133923 L127.713004,32.3386049 C128.843874,32.1368477 129.337075,31.7613923 129.597787,31.1561207 C129.829605,30.5501811 129.85917,29.6563032 129.85917,28.503214 L129.85917,23.9750344 C129.85917,22.4758849 129.742925,21.4951579 127.770791,21.1778246 L127.770791,20.8898863 C128.698735,20.8030372 129.394862,20.8604912 130.845573,20.60128 C131.251423,20.5431579 131.628379,20.4282498 131.976443,20.2552196 L132.150474,20.3995228 L132.034229,22.1010975 C132.933953,21.1490975 133.861897,20.4569768 135.25415,20.4569768 C136.182095,20.4569768 137.081146,20.8604912 137.081146,21.8986723 C137.081146,22.7350961 136.559723,23.1392786 135.834032,23.1392786" id="Fill-6" fill="#FFFFFF"/>
                    <path d="M142.011146,32.8576954 C140.851383,32.8576954 139.719842,32.7133923 138.617866,32.3386049 L138.617866,31.4153319 C138.617866,30.9543635 138.617866,30.492727 138.501621,29.512 L138.878577,29.512 C139.54581,30.8100604 140.155257,32.0212716 141.808221,32.0212716 C144.099526,32.0212716 144.476482,30.7526063 144.476482,29.9736365 C144.476482,28.5893951 143.403399,28.0990316 142.678379,27.7242442 L141.257233,26.9746695 C140.27083,26.4555789 138.820791,25.6478821 138.820791,23.7158232 C138.820791,22.1872786 139.633162,21.3508547 140.50332,20.9186133 C141.286126,20.5431579 142.098498,20.4857039 142.504348,20.4857039 L142.736166,20.4857039 C143.867708,20.4857039 144.389802,20.6874611 145.202174,20.6874611 C145.405099,20.6874611 145.57913,20.630007 145.753162,20.5150989 L145.927194,20.60128 C145.8983,20.8030372 145.869407,21.5526119 145.869407,21.8986723 C145.869407,22.9655804 145.927194,23.1098835 145.927194,23.3984898 L145.549565,23.3984898 C145.057036,22.3890358 144.708972,21.2640056 143.171581,21.2640056 C142.5917,21.2640056 140.706245,21.2640056 140.706245,23.1098835 C140.706245,24.1193375 141.605296,24.6384281 142.156285,24.8976393 L143.896601,25.7627902 C144.969684,26.3112758 146.478182,27.0608505 146.478182,29.1659396 C146.478182,31.8482414 144.244664,32.8576954 142.011146,32.8576954" id="Fill-7" fill="#FFFFFF"/>
                    <path d="M151.524427,16.5347368 C150.653597,16.5347368 150.073715,15.9869193 150.073715,15.1217684 C150.073715,14.2278905 150.712055,13.7088 151.581542,13.7088 C152.422806,13.7088 153.032253,14.2278905 153.032253,15.0930414 C153.032253,16.0156463 152.422806,16.5347368 151.524427,16.5347368 Z M151.611107,32.6265432 C151.031225,32.6265432 149.522727,32.6559382 148.391186,32.7133923 L148.391186,32.3386049 C149.232451,32.1943018 149.725652,31.9638175 150.015929,31.5890302 C150.392885,31.1273937 150.538024,30.8387874 150.538024,26.9452744 L150.538024,23.9750344 C150.538024,22.4758849 150.421779,21.4951579 148.449644,21.1778246 L148.449644,20.8898863 C149.551621,20.8030372 150.653597,20.8030372 151.785138,20.5718849 C152.133202,20.4857039 152.510158,20.3414007 152.829328,20.1970975 L153.00336,20.3126737 C152.829328,22.2160056 152.799763,25.7627902 152.799763,27.2338807 L152.799763,29.5413951 C152.799763,30.3196968 152.829328,31.0692716 153.177391,31.5021811 C153.496561,31.9056954 154.076443,32.1655747 155.091739,32.3386049 L155.091739,32.7133923 C154.308933,32.6559382 152.713083,32.6265432 151.611107,32.6265432 L151.611107,32.6265432 Z" id="Fill-8" fill="#FFFFFF"/>
                    <path d="M161.153281,32.9151495 C159.267826,32.9151495 158.397668,32.1368477 158.020711,30.9543635 C157.817787,30.3196968 157.817787,29.2240618 157.817787,28.3876379 C157.817787,27.9547284 157.875573,23.57152 157.904466,21.6394611 L156.222609,21.6394611 L156.222609,21.2640056 C157.295692,20.9760674 157.934032,20.5150989 158.339881,19.9091593 C158.775296,19.2170386 158.948656,18.2937656 159.064901,17.1694035 L160.254229,17.1694035 C160.166877,18.4674639 160.166877,19.5630989 160.137984,20.7455832 L164.169605,20.60128 L164.169605,21.7256421 L160.137984,21.6394611 L160.137984,28.4738189 C160.137984,30.2622428 160.225336,31.7901193 162.661779,31.7901193 C163.183874,31.7901193 163.705968,31.7039382 164.198498,31.5596351 L164.344308,31.9056954 C163.996245,32.1655747 163.183874,32.9151495 161.153281,32.9151495" id="Fill-9" fill="#FFFFFF"/>
                    <path d="M176.525178,22.6776421 L172.754941,33.1169067 C171.913676,35.4531481 171.304901,37.1547228 170.695455,38.1060547 C169.883083,39.4041151 168.781107,40.1536898 166.866759,40.1536898 C165.851462,40.1536898 164.488103,39.8944786 164.488103,38.6538723 C164.488103,37.9330246 164.980632,37.4713881 165.706324,37.4713881 C166.373557,37.4713881 166.924545,37.8468435 166.924545,38.5676912 C166.924545,39.0867818 166.518696,39.4041151 166.518696,39.4041151 L166.779407,39.4041151 C169.099605,39.4041151 169.795731,37.7312674 170.434071,35.9147846 L171.187984,33.7228463 L166.837194,22.6489151 C166.576482,21.9855214 166.431344,21.2065516 165.416047,20.9473404 L165.416047,20.5718849 C165.793004,20.630007 167.388182,20.658734 167.997628,20.658734 C168.867787,20.658734 169.969763,20.630007 170.579209,20.5718849 L170.579209,20.9473404 C170.057115,21.1203705 169.303202,21.2934007 169.303202,21.9855214 C169.303202,22.3315818 169.418775,22.6489151 169.53502,22.9655804 L171.419802,28.1564856 C171.564941,28.5319411 172.087708,30.0317586 172.319526,30.9830905 L174.581937,23.4846709 C174.668617,23.1680056 174.958893,22.3315818 174.958893,21.9567944 C174.958893,21.2359467 174.20498,21.0916435 173.625099,20.9473404 L173.625099,20.5718849 C174.059842,20.630007 175.278063,20.658734 175.771265,20.658734 C176.496285,20.658734 177.424229,20.630007 177.917431,20.5718849 L177.917431,20.9473404 C177.047273,21.1490975 176.786561,21.9567944 176.525178,22.6776421" id="Fill-10" fill="#FFFFFF"/>
                    <path d="M192.798142,25.1000646 C192.798142,23.4846709 192.769249,21.2934007 190.623083,21.2934007 C187.809012,21.2934007 186.880395,25.8209123 186.880395,28.1284267 L186.880395,28.2433347 C186.880395,29.8580604 186.90996,32.0499986 189.056126,32.0499986 C191.869526,32.0499986 192.798142,27.522487 192.798142,25.2156407 L192.798142,25.1000646 Z M189.027233,32.8864225 C184.879368,32.8864225 184.647549,29.5701221 184.647549,28.0415775 C184.647549,23.600247 187.200237,20.4569768 190.651976,20.4569768 C194.79917,20.4569768 195.030988,23.7732772 195.030988,25.3018218 C195.030988,29.7431523 192.478972,32.8864225 189.027233,32.8864225 L189.027233,32.8864225 Z" id="Fill-11" fill="#FFFFFF"/>
                    <path d="M206.574862,14.0548604 C205.501107,14.0548604 205.472213,13.2758905 205.472213,13.1028604 L205.472213,13.0741333 C205.472213,12.4107396 206.080988,12.1221333 206.080988,12.1221333 C206.080988,12.1221333 205.733597,12.0653474 205.355968,12.0653474 C202.426324,12.0653474 201.990909,14.7469811 201.643518,17.1694035 C201.324348,19.5049768 201.121423,20.8317642 201.121423,20.8317642 L204.39913,20.6874611 L204.225099,21.7830961 L201.00585,21.6969151 C201.00585,21.6969151 200.338617,26.0801235 199.903202,28.9641825 C199.00415,34.9340575 198.68498,36.9242386 197.379407,38.6251453 C196.741739,39.4615691 195.610198,40.1249628 194.217945,40.1249628 C191.868854,40.1249628 191.868854,38.8275705 191.868854,38.6825993 C191.868854,37.7025404 192.622767,37.5007832 193.058182,37.5007832 C193.725415,37.5007832 194.130593,37.9042975 194.130593,38.4233881 C194.130593,39.1155088 193.580277,39.345993 193.580277,39.345993 C193.580277,39.345993 193.725415,39.4041151 194.043913,39.4041151 C194.537115,39.4041151 195.494625,39.2023579 196.074506,38.337207 C196.828419,37.1834498 197.032016,35.1070877 197.321621,33.0307256 C197.959289,28.3301839 198.887905,21.6969151 198.887905,21.6969151 L196.770632,21.6969151 L196.857312,21.2934007 C197.437866,21.2640056 198.191779,21.1490975 198.656087,20.7161881 C199.033043,20.3707958 199.149289,19.5343719 199.264862,18.7554021 C199.439565,17.3424337 199.670711,15.9869193 199.960988,15.0930414 C200.54087,13.3046175 201.904901,11.2863775 205.153715,11.2863775 C207.096285,11.2863775 207.821304,12.0940744 207.821304,12.8149221 C207.821304,13.9392842 207.038498,14.0548604 206.574862,14.0548604" id="Fill-12" fill="#FFFFFF"/>
                    <path d="M228.328814,18.5249179 L228.328814,32.8002414 L227.226166,32.8002414 L215.826759,18.0345544 C215.566719,17.688494 215.305336,17.3711607 215.130632,16.9676463 L215.130632,29.3102428 C215.130632,30.3778189 215.160198,31.0986667 215.508261,31.5596351 C215.797866,31.9056954 216.378419,32.1943018 217.422609,32.3673319 L217.422609,32.7421193 C216.233281,32.6559382 215.392016,32.6265432 214.347826,32.6265432 C213.303636,32.6265432 212.810435,32.6265432 211.302609,32.7421193 L211.302609,32.3673319 C211.678893,32.2804828 212.69419,32.0499986 213.071818,31.6752112 C213.56502,31.1561207 213.6517,30.5501811 213.6517,27.8104253 L213.6517,17.5729179 C213.6517,16.2174035 213.6517,15.3235256 213.24585,14.8338302 C212.955573,14.4583747 212.404585,14.1697684 211.360395,13.9974063 L211.360395,13.6219509 C212.404585,13.7088 212.92668,13.737527 213.97087,13.737527 C214.435178,13.737527 215.101739,13.7088 215.537154,13.6506779 L225.892372,27.0608505 C226.268656,27.522487 226.675178,28.1564856 226.849881,28.4450919 L226.849881,17.0538274 C226.849881,15.9869193 226.820316,15.2660716 226.472253,14.8044351 C226.181976,14.4583747 225.602095,14.1697684 224.557233,13.9974063 L224.557233,13.6219509 C225.747233,13.7088 226.53004,13.737527 227.574901,13.737527 C228.618419,13.737527 229.401225,13.737527 230.677905,13.6219509 L230.677905,13.9974063 C230.300949,14.0835874 229.286324,14.3140716 228.908696,14.6888589 C228.416166,15.2086175 228.328814,15.7851621 228.328814,18.5249179 Z" id="Fill-13" fill="#FFFFFF"/>
                    <path d="M239.638854,24.1767916 C239.638854,22.1585516 238.942727,21.2934007 237.347549,21.2934007 C235.549447,21.2934007 234.563043,22.4464898 234.30166,24.8408533 L239.638854,24.3210947 L239.638854,24.1767916 Z M234.243874,25.4748519 C234.243874,25.4748519 234.21498,25.9077614 234.21498,26.1095186 C234.21498,29.454546 235.549447,31.473454 239.116759,31.473454 C240.073597,31.473454 240.914862,31.2997558 241.727233,30.9543635 L241.872372,31.2135747 C241.002213,32.2517558 239.464822,32.8576954 237.579368,32.8576954 C233.983162,32.8576954 231.836324,30.6083032 231.836324,26.8016393 C231.836324,22.9949754 234.1283,20.4569768 237.550474,20.4569768 C239.378142,20.4569768 240.769723,21.0916435 241.524308,22.2734596 C242.01751,23.0237025 242.191542,23.8307312 242.191542,25.2156407 L242.191542,25.4748519 L234.243874,25.4748519 L234.243874,25.4748519 Z" id="Fill-14" fill="#FFFFFF"/>
                    <path d="M260.754466,22.9368533 L257.041344,32.7708463 L255.416601,32.7708463 L252.922372,24.1767916 C252.893478,24.0618835 252.690553,23.3403677 252.603874,22.8506723 C252.516522,23.3123088 252.371383,23.7445502 252.226245,24.1767916 L249.355059,32.7708463 L247.730988,32.7708463 L244.394822,22.6776421 C244.163004,22.0142484 243.959407,21.1490975 243.002569,20.9473404 L243.002569,20.5718849 C243.553557,20.630007 244.916917,20.658734 245.526364,20.658734 C246.39585,20.658734 247.469605,20.658734 248.078379,20.5718849 L248.078379,20.9473404 C247.701423,21.0335214 246.744585,21.2640056 246.744585,21.9855214 C246.744585,22.3603088 246.831265,22.61952 246.94751,22.9949754 L248.31087,27.522487 C248.542688,28.3301839 248.977431,29.9161825 249.035889,30.3196968 C249.122569,29.8580604 249.267708,29.3970919 249.412846,28.9354554 L252.197352,20.630007 C252.284032,20.6874611 252.806126,20.7161881 253.154862,20.7161881 C253.531818,20.7161881 254.082806,20.6874611 254.170158,20.630007 L256.577036,28.6762442 C256.837747,29.5413951 256.867312,29.7718793 256.925099,30.0885446 C257.273162,29.1372126 259.129723,22.9368533 259.129723,22.9368533 C259.27419,22.4177628 259.332648,22.1872786 259.332648,21.9567944 C259.332648,21.3221277 258.869012,21.1778246 258.05664,20.9473404 L258.05664,20.5718849 C258.491383,20.630007 259.680711,20.658734 260.173913,20.658734 C260.898933,20.658734 261.769091,20.630007 262.262292,20.5718849 L262.262292,20.9473404 C261.218103,21.1778246 261.072964,22.1010975 260.754466,22.9368533" id="Fill-15" fill="#FFFFFF"/>
                    <path d="M286.247747,14.6888589 C285.755217,15.2086175 285.667866,15.7851621 285.667866,18.5249179 L285.667866,28.7911523 C285.667866,30.1466667 285.667866,31.0405446 286.073715,31.5309081 C286.363992,31.9056954 286.91498,32.1943018 287.95917,32.3673319 L287.95917,32.7421193 C286.769842,32.6559382 285.464941,32.6265432 284.420079,32.6265432 C283.376561,32.6265432 282.070988,32.6265432 280.79498,32.7421193 L280.79498,32.3673319 C281.20083,32.2804828 282.187233,32.0499986 282.56419,31.6752112 C283.057391,31.1273937 283.144071,30.5221221 283.144071,27.8104253 L283.144071,23.4846709 L273.340514,23.4846709 L273.340514,29.3102428 C273.340514,30.3778189 273.369407,31.0986667 273.71747,31.5596351 C274.007075,31.9056954 274.5883,32.1943018 275.631818,32.3673319 L275.631818,32.7421193 C274.44249,32.6559382 273.136917,32.6265432 272.093399,32.6265432 C271.049209,32.6265432 269.744308,32.6265432 268.467628,32.7421193 L268.467628,32.3673319 C268.844585,32.2804828 269.859209,32.0499986 270.236838,31.6752112 C270.729368,31.1561207 270.816719,30.5501811 270.816719,27.8104253 L270.816719,17.5729179 C270.816719,16.2174035 270.816719,15.3235256 270.41087,14.8338302 C270.120593,14.4583747 269.569605,14.1697684 268.525415,13.9974063 L268.525415,13.6219509 C269.714071,13.7088 271.020316,13.737527 272.064506,13.737527 C273.108024,13.737527 274.413597,13.737527 275.689605,13.6219509 L275.689605,13.9974063 C275.283755,14.0835874 274.297352,14.3140716 273.920395,14.6888589 C273.427194,15.2373446 273.340514,15.8426161 273.340514,18.5536449 L273.340514,22.2160056 L283.144071,22.2160056 L283.144071,17.0538274 C283.144071,15.9869193 283.115178,15.2660716 282.767115,14.8044351 C282.47751,14.4583747 281.896957,14.1697684 280.852767,13.9974063 L280.852767,13.6219509 C282.042095,13.7088 283.347668,13.737527 284.391186,13.737527 C285.435375,13.737527 286.740949,13.737527 288.017628,13.6219509 L288.017628,13.9974063 C287.64,14.0835874 286.625375,14.3140716 286.247747,14.6888589" id="Fill-16" fill="#FFFFFF"/>
                    <path d="M296.253557,27.0321235 C295.354506,27.0895775 293.671976,27.2338807 292.888498,27.6380632 C291.989447,28.1284267 291.844308,28.9641825 291.844308,29.5701221 C291.844308,30.8969095 292.714466,31.7039382 294.193399,31.7039382 C294.831739,31.7039382 295.673004,31.5596351 296.253557,31.2997558 L296.253557,27.0321235 Z M297.877628,32.9151495 C296.949684,32.9151495 296.369802,32.3960589 296.339565,31.5596351 C295.470079,32.5403621 294.135613,32.9151495 293.120988,32.9151495 C290.857905,32.9151495 289.436759,31.7039382 289.436759,29.8293333 C289.436759,28.0703046 290.5683,27.2051537 291.756957,26.8590933 C293.207668,26.4268519 295.470079,26.4268519 296.253557,26.4268519 L296.253557,24.5515789 C296.253557,23.9463074 296.224664,23.4559439 296.195099,23.0524295 C296.108419,22.2734596 295.614545,21.2640056 293.962253,21.2640056 C292.946957,21.2640056 292.540435,21.4083088 292.540435,21.4083088 C292.540435,21.4083088 292.888498,21.6394611 292.888498,22.2734596 C292.888498,22.9368533 292.481976,23.3697628 291.815415,23.3697628 C291.119289,23.3697628 290.684545,23.0237025 290.684545,22.3315818 C290.684545,21.2934007 292.163478,20.4282498 294.542134,20.4282498 C297.616245,20.4282498 298.167233,21.8124912 298.399723,22.7063691 C298.515968,23.1967326 298.544862,24.0044295 298.544862,24.6384281 L298.544862,25.4461249 C298.544862,26.1382456 298.486403,29.5701221 298.486403,29.7144253 C298.486403,30.464 298.544862,30.9256365 298.86336,31.1848477 C299.09585,31.3866049 299.472806,31.444727 300.052688,31.444727 L300.401423,31.444727 L300.488103,31.6752112 C299.531265,32.5403621 298.718893,32.9151495 297.877628,32.9151495 L297.877628,32.9151495 Z" id="Fill-17" fill="#FFFFFF"/>
                    <path d="M311.480316,22.6776421 L307.273992,32.7708463 L305.707708,32.7708463 L301.879684,22.6776421 C301.559842,21.8699453 301.328024,21.1490975 300.457866,20.9473404 L300.457866,20.5718849 C301.008854,20.630007 302.401107,20.658734 303.039447,20.658734 C303.880711,20.658734 305.011581,20.658734 305.621028,20.5718849 L305.621028,20.9473404 C304.576166,21.2359467 304.34502,21.5526119 304.34502,22.0142484 C304.34502,22.3603088 304.489486,22.8506723 304.692411,23.3984898 L306.287589,27.9260014 C306.665217,28.9929095 306.925929,29.8293333 307.158419,30.7232112 C307.216206,30.5789081 307.680514,29.1372126 307.883439,28.5319411 L309.652648,23.3123088 C309.82668,22.7932182 309.971818,22.2734596 309.971818,21.9273993 C309.971818,21.2934007 309.391265,21.1490975 308.695138,20.9473404 L308.695138,20.5718849 C309.130553,20.630007 310.290316,20.658734 310.78419,20.658734 C311.509209,20.658734 312.408261,20.630007 312.901462,20.5718849 L312.901462,20.9473404 C312.031304,21.1490975 311.856601,21.7830961 311.480316,22.6776421" id="Fill-18" fill="#FFFFFF"/>
                    <path d="M321.224743,24.1767916 C321.224743,22.1585516 320.528617,21.2934007 318.933439,21.2934007 C317.135336,21.2934007 316.148933,22.4464898 315.887549,24.8408533 L321.224743,24.3210947 L321.224743,24.1767916 Z M315.829763,25.4748519 C315.829763,25.4748519 315.800198,25.9077614 315.800198,26.1095186 C315.800198,29.454546 317.135336,31.473454 320.702648,31.473454 C321.659486,31.473454 322.500751,31.2997558 323.313123,30.9543635 L323.458261,31.2135747 C322.588103,32.2517558 321.050711,32.8576954 319.165257,32.8576954 C315.569051,32.8576954 313.422213,30.6083032 313.422213,26.8016393 C313.422213,22.9949754 315.71419,20.4569768 319.136364,20.4569768 C320.964032,20.4569768 322.355613,21.0916435 323.110198,22.2734596 C323.603399,23.0237025 323.777431,23.8307312 323.777431,25.2156407 L323.777431,25.4748519 L315.829763,25.4748519 L315.829763,25.4748519 Z" id="Fill-19" fill="#FFFFFF"/>
                    <path d="M336.422609,32.6265432 C335.842727,32.6265432 334.566047,32.6559382 333.347826,32.7133923 L333.347826,32.3386049 C333.898814,32.2517558 334.305336,32.0787256 334.566047,31.8482414 C335.088142,31.3291509 335.146601,30.406546 335.174822,29.0216365 C335.203715,28.3876379 335.203715,27.3494568 335.203715,26.2825488 C335.203715,24.9557614 335.146601,24.6097011 335.088142,24.2061867 C334.856324,22.4464898 333.695889,21.6969151 332.042253,21.6969151 C331.056522,21.6969151 330.302609,21.8124912 329.576917,22.2447326 L329.576917,28.7624253 C329.576917,31.1561207 329.722055,31.2135747 329.867194,31.5021811 C330.099012,31.9925446 330.96917,32.2230288 331.433478,32.3386049 L331.433478,32.7133923 C330.418182,32.6559382 329.316206,32.6265432 328.213557,32.6265432 C327.633676,32.6265432 326.299209,32.6559382 325.16834,32.7133923 L325.16834,32.3386049 C325.980711,32.1943018 326.473241,31.9638175 326.792411,31.5890302 C327.256047,31.0692716 327.314506,30.1753937 327.314506,27.1476996 L327.314506,23.9750344 C327.314506,22.4758849 327.198261,21.4951579 325.226126,21.1778246 L325.226126,20.8898863 C326.096285,20.8604912 327.198261,20.7743102 328.213557,20.630007 C328.620079,20.5718849 329.083715,20.4282498 329.432451,20.2552196 L329.60581,20.3707958 L329.51913,21.9567944 C330.621107,20.8317642 332.042253,20.3707958 333.435178,20.3707958 C335.407312,20.3707958 336.770672,21.2065516 337.263874,22.9655804 C337.379447,23.4272168 337.466798,24.4079439 337.466798,25.1000646 L337.466798,28.7911523 C337.466798,30.7232112 337.523913,31.0692716 337.81419,31.473454 C338.162925,31.9638175 338.830158,32.1655747 339.758103,32.3386049 L339.758103,32.7133923 C338.975296,32.6559382 337.523913,32.6265432 336.422609,32.6265432" id="Fill-20" fill="#FFFFFF"/>
                    <path d="M16.6552964,28.6241347 C15.256996,26.4756211 13.8593676,24.3210947 12.6062055,22.3843593 C18.9701186,22.4518344 34.4152569,22.4598512 37.7023715,22.4605193 C37.0929249,23.3824561 35.6986561,25.4768561 33.9825296,28.0529347 L33.9932806,29.2487804 C36.5506719,25.4113853 38.5846245,22.3542961 38.6242688,22.2754639 L38.8675099,21.7917811 L38.3225692,21.7917811 C38.2365613,21.7917811 34.4065217,21.7917811 29.5833597,21.7837642 C29.5981423,21.5572884 29.5847036,21.3027537 29.4664427,21.2058835 C29.4664427,21.2058835 29.3401186,20.9967775 29.0948617,21.0943158 C29.0948617,21.0943158 28.9624901,21.0969881 28.6245059,21.0943158 C28.3859684,21.0929796 28.0439526,21.0889712 27.5729249,21.0802863 C27.5729249,21.0802863 27.4681028,20.4943888 27.699249,20.0347565 C27.699249,20.0347565 28.2670356,20.1182653 29.3192885,19.1141558 C29.3192885,19.1141558 29.3609486,18.8843396 29.7116996,18.7794526 C29.7116996,18.7794526 29.9361265,19.6158765 30.833834,19.7555032 C30.833834,19.7555032 32.7132411,20.0347565 32.4048221,18.6124351 C32.4048221,18.6124351 31.3666798,18.8910204 31.2826877,18.5008674 C31.2826877,18.5008674 31.226917,18.1935551 31.8719763,17.8875789 C31.8719763,17.8875789 32.9658893,17.7760112 33.3018577,17.6644435 C33.3018577,17.6644435 34.8446245,17.3571312 34.8446245,15.2660716 C34.8446245,15.2660716 34.7888538,14.5966653 34.4239921,14.7362919 C34.4239921,14.7362919 31.5071146,14.8198007 30.7498419,14.7917418 C30.7498419,14.7917418 30.133004,14.708233 29.8803557,15.2660716 C29.8803557,15.2660716 29.7399209,15.9074189 29.0108696,15.6007747 C29.0108696,15.6007747 28.73,15.5446568 27.8047431,15.0429361 C27.8047431,15.0429361 26.9352569,14.5686063 26.4581818,14.3735298 C26.4581818,14.3735298 27.1032411,12.3933698 25.1956126,12.33792 C25.1956126,12.33792 23.6817391,12.4214288 24.0177075,14.3174119 C24.0177075,14.3174119 22.5313834,14.8478596 21.8863241,15.4611481 C21.8863241,15.4611481 20.4,16.6322751 19.5580632,16.2140632 C19.5580632,16.2140632 18.3848617,15.9642049 17.8506719,15.8526372 C17.7949012,15.8199018 17.7176285,15.7337207 17.7176285,15.5065768 C17.7176285,15.5065768 17.6544664,15.0255663 17.8755336,14.2833404 C17.8755336,14.2833404 17.9595257,13.8751495 18.1906719,13.509047 C18.1906719,13.509047 18.222253,13.2685418 18.1906719,13.2057432 C18.1906719,13.2057432 18.2121739,13.1636547 17.9171937,13.185033 C17.9171937,13.185033 17.243913,13.4669586 16.6969565,12.8817291 C16.6969565,12.8817291 16.5921344,12.6512449 16.4133992,12.87104 C16.4133992,12.87104 15.9396838,13.509047 15.4767194,13.3834498 C15.4767194,13.3834498 15.4054941,13.3520505 15.2811858,13.2859116 C15.2811858,13.2859116 14.9445455,13.2578526 15.0285375,13.4529291 C15.0285375,13.4529291 15.0567589,13.6065853 15.3087352,14.1777853 C15.3087352,14.1777853 15.5331621,14.4430091 15.5472727,15.7677923 C15.5472727,15.7677923 15.6453755,16.2140632 15.5331621,16.3810807 C15.5331621,16.3810807 14.7483399,16.9529488 14.8316601,17.4827284 C14.8316601,17.4827284 15.0426482,17.7760112 15.491502,17.4827284 C15.491502,17.4827284 16.4873123,17.1066049 17.4333992,17.3364211 C17.4333992,17.3364211 18.6959684,17.7967214 19.5157312,18.4033291 C19.5157312,18.4033291 20.4416601,18.92576 21.0309486,19.34464 C21.0309486,19.34464 22.0193676,20.0133782 23.1556126,20.2852828 C23.1556126,20.2852828 23.3242688,20.4322582 23.2604348,20.5992758 C23.2604348,20.5992758 23.533913,21.3521909 22.9452964,21.2265937 C22.9452964,21.2265937 21.5147431,21.1009965 21.388419,21.4777881 C21.388419,21.4777881 21.3662451,21.6047214 21.3588538,21.7650582 C17.606087,21.753033 14.1160474,21.734327 11.9893676,21.7076042 L11.3631225,21.7002554 L11.7017787,22.2233544 C11.7293281,22.2654428 14.0582609,25.8663411 16.7271937,29.9656196 L16.6552964,28.6241347 Z M21.1989328,36.7999775 C21.7519368,37.6384056 22.2444664,38.3826358 22.673834,39.0273235 C24.8441897,42.2888421 24.8697233,42.2888421 25.1116206,42.2888421 L25.2923715,42.2888421 L25.3924901,42.1391944 C26.3365613,40.7248898 27.5803162,38.8616421 28.9275494,36.842066 L28.1313043,36.8253642 C27.0326877,38.4714891 25.9871542,40.0381137 25.086087,41.3876154 C24.5949012,40.7028435 23.4579842,39.0039411 21.9918182,36.7812716 L21.1989328,36.7999775 Z M22.2370751,21.8332014 C22.9332016,21.8332014 28.5264032,21.7710709 28.5801581,21.7704028 C28.8428854,21.8044744 28.9127668,21.8699453 28.9248617,21.9180463 C28.942332,21.9922021 28.8422134,22.0810554 28.8025692,22.1091144 L28.7689723,22.1318288 L28.7803953,22.1358372 C28.6816206,22.1538751 28.3436364,22.1792618 27.2940711,22.1966316 L23.895415,22.2153375 C22.9365613,22.2140014 22.1900395,22.2106611 22.110751,22.209993 C22.0670751,22.1765895 22.0462451,22.1398456 22.046917,22.0970891 C22.0475889,21.9801768 22.2054941,21.8565839 22.2370751,21.8332014 Z M21.7888933,16.9242218 C21.7196838,16.9489404 21.4798024,17.0291088 21.3050988,17.0291088 C21.0981423,17.0291088 21.0128063,16.9188772 20.9812253,16.8534063 C20.920751,16.7304814 20.9489723,16.5948632 21.0638735,16.4492239 L21.0840316,16.4231691 L21.1102372,16.4037951 C21.4502372,16.1505965 21.7613439,15.9314695 22.0630435,15.7196912 C22.3613834,15.5099172 22.6704743,15.2934625 23.0044269,15.0442723 L23.0393676,15.0175495 L23.0810277,15.0048561 C23.098498,15.0001796 23.1912253,14.9734568 23.2920158,14.9734568 C23.5594466,14.9734568 23.6817391,15.1571761 23.6817391,15.3288702 L23.6817391,15.3983495 L23.6454545,15.4578077 C23.2396047,16.1298863 22.5979051,16.6369516 21.7888933,16.9242218 Z M22.8868379,19.4849347 C22.8727273,19.5083172 22.8075494,19.5363761 22.6677866,19.5363761 C22.5401186,19.5363761 22.4151383,19.5136618 22.4111067,19.5129937 C21.5080237,19.373367 21.0551383,18.8950288 21.0504348,18.8903523 L20.9059684,18.792814 C19.7502372,18.0318821 19.7280632,18.0178526 18.7618182,17.5174681 C18.2894466,17.2181726 16.6935968,16.9716547 16.6096047,16.9596295 C16.0263636,16.9816758 15.7790909,17.1339958 15.7743874,17.1366681 C15.4128854,17.3257319 15.3678656,17.2535804 15.3618182,17.2435593 C15.3275494,17.1894456 15.3725692,17.0284407 15.4209486,16.9248898 C15.9739526,16.3723958 16.9697628,16.288887 17.5160474,16.288887 C17.7975889,16.288887 17.9897628,16.3109333 17.9911067,16.3109333 C19.475415,16.4953207 21.5644664,17.4246063 21.5852964,17.4339593 C22.5273518,17.8521712 22.80083,18.5309305 22.8028458,18.5369432 C22.8828063,18.7520618 22.8572727,18.7954863 22.8572727,18.7954863 C22.8572727,18.7954863 22.7853755,18.7988267 22.6771937,18.7627509 C22.3062846,18.640494 22.0502767,18.2570218 22.0475889,18.2530133 L22.0354941,18.2343074 L22.0166798,18.2242863 C21.8997628,18.1634919 21.8043478,18.1340968 21.7243874,18.1340968 C21.6343478,18.1340968 21.5812648,18.1728449 21.5523715,18.2055804 C21.4804743,18.2864168 21.4925692,18.4006568 21.493913,18.4140182 L21.5033202,18.4427453 C21.6699605,18.7527298 22.3519763,19.1362021 22.4682213,19.2003368 C22.5737154,19.3279382 22.7786561,19.3807158 22.8700395,19.3987537 C22.8915415,19.4441825 22.8935573,19.4722414 22.8868379,19.4849347 Z M15.6581423,13.6460014 C15.6964427,13.5651649 15.8335178,13.5397782 15.9430435,13.5324295 L15.9699209,13.5257488 C15.9766403,13.5230765 16.1251383,13.4596098 16.3791304,13.3119663 L16.4006324,13.2939284 C16.4013043,13.2932604 16.4765613,13.2097516 16.5847431,13.2097516 C16.6680632,13.2097516 16.7547431,13.2598568 16.8454545,13.3620716 C16.8528458,13.3694204 17.0604743,13.5731818 17.5106719,13.5330975 C17.5751779,13.547127 17.7283794,13.5972323 17.7613043,13.689426 C17.7888538,13.7669221 17.722332,13.8678007 17.6618577,13.9379481 L17.647747,13.9539818 L17.6430435,13.9740239 C17.5254545,14.4884379 17.4925296,14.6567916 17.4938735,14.7242667 C17.4716996,14.9781333 17.4683399,15.2373446 17.4515415,15.3549249 L17.4515415,15.4177235 L17.4481818,15.4958877 C17.4817787,15.5520056 17.4925296,15.6588968 17.4710277,15.6976449 C17.4468379,15.7377291 17.2983399,15.7323846 17.0981028,15.670254 L17.0839921,15.6655775 L17.0698814,15.6662456 C16.8635968,15.6742625 16.5041107,15.698313 16.4194466,15.7617796 C16.4187747,15.7624477 16.3220158,15.8178975 16.2178656,15.8178975 C16.1063241,15.8178975 16.0283794,15.7517586 15.9813439,15.6161404 C15.9665613,15.1992646 15.9558103,14.9447298 15.9296047,14.7215944 C15.9141502,14.6427621 15.8637549,14.4055972 15.7448221,13.9506414 L15.7313834,13.9225825 C15.6991304,13.8784898 15.6171542,13.7341867 15.6581423,13.6460014 Z M17.9071146,15.8720112 C17.9071146,15.8720112 17.8835968,15.8706751 17.8540316,15.8539733 L17.9071146,15.8720112 Z M24.0311462,16.9696505 C24.2401186,16.3262989 24.5055336,15.7804856 24.5431621,15.7049937 C24.7675889,15.3696225 25.0471146,15.1999326 25.372332,15.1999326 C25.64917,15.1999326 25.8641897,15.3241937 25.8662055,15.3255298 L25.8910672,15.3375551 C26.7786957,15.6902961 27.3679842,16.4859677 27.3740316,16.4933165 L27.39083,16.5133586 C27.6307115,16.7518596 27.6125692,16.8534063 27.6098814,16.8640954 C27.6018182,16.8941586 27.5514229,16.9175411 27.5326087,16.9235537 L27.5151383,16.9282302 C26.9184585,17.1460211 25.2735573,17.1694035 25.2486957,17.1694035 C24.8831621,17.1921179 24.5908696,17.2041432 24.3798814,17.2041432 C24.1964427,17.2041432 23.9968775,17.2081516 23.9827668,17.2081516 L23.9820949,17.2081516 C23.9753755,17.1633909 23.9955336,17.0585039 24.0311462,16.9696505 Z M24.5478656,13.0173474 C24.7151779,12.823607 24.9604348,12.7167158 25.2399605,12.7167158 C25.3064822,12.7167158 25.3756917,12.7227284 25.4449012,12.7347537 C25.966996,12.8242751 26.1074308,13.2398147 26.2686957,13.7214933 C26.2680237,14.1978274 26.0597233,14.4770807 25.6330435,14.5759551 C25.4690909,14.6140351 25.3152174,14.6334091 25.1761265,14.6334091 C24.8394862,14.6334091 24.4195257,14.517833 24.3335178,13.966007 C24.2730435,13.5845389 24.3496443,13.2478316 24.5478656,13.0173474 Z M27.8249012,17.9884575 C27.9055336,17.9884575 27.9626482,17.9897937 27.9949012,17.9904618 C28.1057708,18.1601516 28.1413834,18.3425347 28.1010672,18.5336028 C27.9686957,19.1535719 27.093834,19.6826835 27.0844269,19.6880281 C26.6396047,19.9565923 25.9112253,20.0407691 25.9065217,20.0421053 C25.6243083,20.0648196 25.489249,20.1196014 25.468419,20.22048 C25.4435573,20.3400646 25.6095257,20.4349305 25.6431225,20.4529684 L25.6639526,20.4623214 L25.6847826,20.4589811 C25.6921739,20.4576449 25.7304743,20.4536365 25.9401186,20.4536365 C26.2082213,20.4536365 26.5750988,20.4596491 26.5750988,20.4589811 C26.6436364,20.4696702 26.6725296,20.4883761 26.6758893,20.5010695 C26.6873123,20.5458302 26.5865217,20.6627425 26.4897628,20.7382344 L26.4709486,20.7609488 C26.3849407,20.9466723 26.5152964,21.0782821 26.5918972,21.1190344 C26.6557312,21.1611228 26.6879842,21.2038793 26.6873123,21.2452996 C26.6859684,21.306094 26.615415,21.3688926 26.5777866,21.3949474 C26.3681423,21.4069726 26.1894071,21.420334 26.0241107,21.4323593 C25.6948617,21.4564098 25.4341502,21.4757839 25.1082609,21.4757839 C24.8986166,21.4757839 24.671502,21.4670989 24.4148221,21.4497291 C24.3281423,21.4443846 24.2710277,21.4243425 24.2596047,21.3956154 C24.2448221,21.3568674 24.2945455,21.2766989 24.342253,21.2239214 C24.703083,21.1891818 25.3105138,21.1831691 25.6451383,21.1831691 C25.7741502,21.1831691 25.872253,21.1838372 25.9206324,21.1845053 L25.9219763,21.1858414 L25.9501976,21.1858414 L25.9817787,21.1778246 L26.0147036,21.1370723 C26.0516601,21.0849628 26.136996,20.9640421 26.0852569,20.849134 C26.052332,20.7763144 25.9757312,20.7295495 25.8514229,20.706167 L25.7949802,20.6974821 L25.7922925,20.6974821 C25.7922925,20.6974821 25.755336,20.7001544 25.7271146,20.7001544 C25.5026877,20.7001544 24.7420553,20.6834526 24.7333202,20.6834526 C24.5599605,20.6834526 24.4820158,20.6694232 24.447747,20.658734 C24.4712648,20.6400281 24.5129249,20.6159775 24.554585,20.5972716 C24.84083,20.5558512 24.9933597,20.4756828 25.0195652,20.3527579 C25.0558498,20.1864084 24.8347826,20.0401011 24.809249,20.0233993 L24.7931225,20.0160505 C23.4405138,19.6232253 23.4593281,18.6318091 23.4841897,18.3946442 C23.6844269,18.3859593 24.1682213,18.3418667 24.1816601,18.3398625 C24.3106719,18.3505516 24.3993676,18.3158119 24.4571542,18.24032 C24.5236759,18.1534709 24.523004,18.0352225 24.5135968,17.9590625 C25.6639526,17.8849067 26.83917,17.8007298 27.0582213,17.7846961 C27.1650593,17.9390204 27.1905929,17.9771004 27.1905929,17.9777684 L27.210751,18.0078316 L27.2470356,18.0058274 C27.5057312,17.9911298 27.7046245,17.9884575 27.8249012,17.9884575 Z M29.356917,16.469266 C29.38917,16.3897656 29.4879447,16.3610386 29.4886166,16.3610386 L29.5128063,16.3496814 C29.7755336,16.1759832 29.9824901,15.8840365 29.9851779,15.8786919 C30.2055731,15.6281656 30.3265217,15.4464505 30.3762451,15.365614 C30.7827668,15.3676182 33.8071542,15.2947986 33.8474704,15.2934625 C34.0376285,15.2934625 34.17,15.3402274 34.2398814,15.431753 C34.3406719,15.5640309 34.2875889,15.7571032 34.286917,15.7591074 L34.2842292,15.7758091 C34.1948617,16.9275621 33.2662451,17.3337488 33.2171937,17.355127 C32.9168379,17.5341698 32.4028063,17.5562161 32.3833202,17.5582204 C32.2731225,17.5816028 32.2052569,17.5655691 32.2032411,17.5655691 C32.2025692,17.5635649 32.2025692,17.5595565 32.2025692,17.5555481 C32.4397628,17.469367 32.6285771,16.9021754 32.7045059,16.6416281 C32.7488538,16.4164884 32.7092095,16.2187396 32.586917,16.0537263 C32.3174704,15.6902961 31.7402767,15.6241572 31.716087,15.622153 L31.7039921,15.6208168 L31.6925692,15.622153 C30.6873518,15.7945151 30.2828458,16.4712702 30.26,16.5146947 C30.0779051,17.0357895 29.6283794,17.5481993 29.6243478,17.5528758 L29.612253,17.5709137 C29.5558103,17.6831495 29.5128063,17.7479523 29.483913,17.7846961 C29.55917,17.1633909 29.4153755,16.7318175 29.4026087,16.6990821 C29.3488538,16.6042161 29.3327273,16.5273881 29.356917,16.469266 Z M31.822253,16.8734484 C31.6152964,17.1907818 31.0280237,17.4987621 31.0219763,17.5021025 L31.0051779,17.5121235 C30.8392095,17.6357165 30.759249,17.6604351 30.7303557,17.6644435 C30.7162451,17.6036491 30.7498419,17.4299509 30.8069565,17.2809712 C31.0528854,16.5541109 31.3599605,16.4946526 31.3592885,16.4946526 L31.3821344,16.4899761 C31.4842688,16.4605811 31.5722925,16.4452154 31.6441897,16.4452154 C31.7738735,16.4452154 31.8088142,16.4939846 31.8202372,16.5100182 C31.8874308,16.6042161 31.8464427,16.7966204 31.822253,16.8734484 Z M31.4379051,19.0446765 C31.5635573,19.0446765 31.652253,19.0286428 31.6972727,19.0172856 C31.7039921,19.0186218 31.7100395,19.020626 31.715415,19.0219621 C31.6784585,19.0720674 31.5850593,19.15424 31.493004,19.2143663 C31.3498814,19.3119046 31.2067589,19.3620098 31.0683399,19.3620098 C30.5771542,19.3620098 30.2364822,18.7500575 30.228419,18.7360281 C30.0960474,18.5295944 30.1518182,18.3418667 30.153834,18.335186 L30.1592095,18.3131396 C30.1625692,18.287753 30.1666008,18.2670428 30.1706324,18.2503411 C30.1847431,18.2697151 30.1981818,18.2917614 30.2096047,18.3124716 L30.2223715,18.3331818 C30.6436759,18.8549446 31.0045059,18.9872225 31.0333992,18.9959074 C31.1745059,19.0286428 31.3102372,19.0446765 31.4379051,19.0446765 L31.4379051,19.0446765 Z" id="Fill-22" fill="#FFFFFF"/>
                    <path d="M0.223754941,25.1381446 C0.223754941,11.471433 11.3664822,0.393493333 25.1116206,0.393493333 C38.8567589,0.393493333 49.9994862,11.471433 49.9994862,25.1381446 C49.9994862,38.8041881 38.8567589,49.8827958 25.1116206,49.8827958 C11.3664822,49.8827958 0.223754941,38.8041881 0.223754941,25.1381446 Z" id="Stroke-23" stroke="#FFFFFF" stroke-width="0.666"/>
                    <path d="M5.85324111,34.0862765 C6.23960474,33.8778386 6.63873518,33.6560393 7.086917,33.7929937 C7.52434783,33.9219312 7.83814229,34.2900379 8.04778656,34.6741782 C8.24869565,35.0436211 8.42407115,35.4992449 8.33,35.9147846 C8.21577075,36.4271944 7.81731225,36.6623551 7.38391304,36.8955116 L5.24379447,38.0486007 L4.75798419,37.156727 L6.89810277,36.0036379 C7.06272727,35.9147846 7.3026087,35.7918596 7.40205534,35.6321909 C7.52905138,35.4244211 7.46051383,35.176567 7.35166008,34.976146 C7.26296443,34.8124688 7.07952569,34.5986863 6.88399209,34.5712954 C6.6629249,34.5445726 6.42438735,34.6935523 6.23893281,34.7937628 L4.09814229,35.9468519 L3.71312253,35.2386975 L5.85324111,34.0862765" id="Fill-25" fill="#FFFFFF"/>
                    <polyline id="Fill-26" fill="#FFFFFF" points="6.01114625 29.4485333 6.23422925 30.216146 4.06387352 32.434807 4.07059289 32.4568533 6.66762846 31.7119551 6.86920949 32.4067481 3.00422925 33.5150765 2.72335968 32.5463747 4.62158103 30.6123116 4.61822134 30.6009544 2.34774704 31.2523228 2.14616601 30.5575298 6.01114625 29.4485333"/>
                    <polyline id="Fill-27" fill="#FFFFFF" points="5.74573123 27.2439018 5.84786561 28.1711832 1.84916996 28.6067649 1.74636364 27.6794835 5.74573123 27.2439018"/>
                    <polyline id="Fill-28" fill="#FFFFFF" points="5.73094862 24.0131144 5.67786561 25.0198961 1.59786561 26.0093081 1.65027668 25.0138835 4.56177866 24.3605109 1.73695652 23.3837923 1.7786166 22.5974737 5.73094862 24.0131144"/>
                    <polyline id="Fill-29" fill="#FFFFFF" points="3.04051383 20.3393965 3.83003953 20.5404856 4.20766798 19.0720674 4.94075099 19.2584589 4.56245059 20.7268772 5.42588933 20.9466723 5.90565217 19.0827565 6.66158103 19.2751607 5.94932806 22.0423074 2.0527668 21.0508912 2.76501976 18.2837446 3.52027668 18.4761488 3.04051383 20.3393965"/>
                    <path d="M5.33249012,16.6082246 L5.55960474,16.1479242 C5.64561265,15.9755621 5.75379447,15.7945151 5.73968379,15.5987705 C5.72288538,15.4217319 5.59051383,15.2660716 5.4326087,15.1892435 C5.29083004,15.1197642 5.09664032,15.1291172 4.9629249,15.213294 C4.80367589,15.3108323 4.70624506,15.5620267 4.6283004,15.7190232 L4.41126482,16.1586133 L5.33249012,16.6082246 Z M7.37988142,17.6089937 L6.96664032,18.4460856 L3.35498024,16.6823804 L4.10217391,15.1698695 C4.26007905,14.8505319 4.42604743,14.5291902 4.74185771,14.3387902 C5.08118577,14.1403733 5.51391304,14.1503944 5.86667984,14.3227565 C6.2772332,14.5231775 6.54063241,14.9440618 6.49090909,15.4010218 L8.41466403,15.5152618 L7.95438735,16.4465516 L6.25640316,16.2995761 L5.95335968,16.9121965 L7.37988142,17.6089937 L7.37988142,17.6089937 Z" id="Fill-30" fill="#FFFFFF"/>
                    <path d="M7.91272727,11.4213277 C7.57272727,11.3050835 7.33284585,11.3919326 7.11245059,11.6725221 C6.9572332,11.8702709 6.8201581,12.1481881 7.06474308,12.3385881 C7.29588933,12.5182989 7.56802372,12.2858105 7.7413834,12.1321544 C7.99940711,11.9177039 8.33470356,11.623753 8.65588933,11.5181979 C9.02948617,11.3939368 9.41517787,11.442706 9.72964427,11.6865516 C10.0387352,11.9270568 10.2194862,12.3038484 10.2167984,12.6953375 C10.2167984,13.1021923 10.0058103,13.4936814 9.75652174,13.8103467 C9.29086957,14.4029249 8.60952569,14.7389642 7.8784585,14.3995846 L8.25608696,13.5979004 C8.66059289,13.7649179 8.96363636,13.6159382 9.22031621,13.28992 C9.38695652,13.0781418 9.52873518,12.7367579 9.26533597,12.5323284 C9.00193676,12.3278989 8.67,12.6459004 8.47581028,12.8069053 C7.92011858,13.2772267 7.32007905,13.699447 6.62731225,13.1603144 C6.33098814,12.9304982 6.16300395,12.6145011 6.15090909,12.242386 C6.13679842,11.861586 6.28596838,11.5409123 6.513083,11.2509698 C6.94715415,10.6998119 7.49545455,10.4005165 8.19695652,10.6350091 L7.91272727,11.4213277" id="Fill-31" fill="#FFFFFF"/>
                    <polyline id="Fill-32" fill="#FFFFFF" points="12.2621739 11.062574 11.5720949 11.6945684 8.84671937 8.7517193 9.53679842 8.12039298 12.2621739 11.062574"/>
                    <polyline id="Fill-33" fill="#FFFFFF" points="13.7518577 6.01931228 12.9126087 6.57581474 14.7019763 9.24341895 13.9211858 9.76117333 12.1318182 7.09356912 11.2831621 7.65608421 10.8403557 6.99603088 13.3090514 5.35925895 13.7518577 6.01931228"/>
                    <polyline id="Fill-34" fill="#FFFFFF" points="17.3991304 6.00394667 18.052253 7.55921404 17.1854545 7.91863579 16.5336759 6.36336842 14.4627668 4.71323509 15.4693281 4.2963593 16.7735573 5.40468772 16.8877866 3.70778947 17.6672332 3.38511158 17.3991304 6.00394667"/>
                    <path d="M23.1126087,3.50068772 C23.0326482,3.74453333 23.0185375,4.08992561 23.0333202,4.34045193 C23.0635573,4.84083649 23.1865217,5.63450386 23.8483794,5.59508772 C24.1702372,5.57571368 24.3362055,5.40869614 24.4242292,5.10539228 C24.5035178,4.85553404 24.5129249,4.52216702 24.4974704,4.26028351 C24.48,3.96900491 24.4302767,3.62695298 24.2972332,3.36640561 C24.1641897,3.10519018 23.9867984,2.99295439 23.6945059,3.01032421 C23.3726482,3.02903018 23.2066798,3.20272842 23.1126087,3.50068772 Z M22.556917,5.80552982 C22.2390909,5.40936421 22.0798419,4.8989586 22.0496047,4.39857404 C21.9864427,3.33834667 22.4601581,2.31820351 23.6488142,2.24805614 C24.1816601,2.21598877 24.6137154,2.36630456 24.9617787,2.78384842 C25.2722134,3.15663158 25.4516206,3.71313404 25.4805138,4.19614877 C25.5073913,4.65043649 25.4173518,5.2102793 25.1828458,5.60377263 C24.8992885,6.07676632 24.4383399,6.32528842 23.8940711,6.35735579 C23.3491304,6.39009123 22.8989328,6.22908632 22.556917,5.80552982 L22.556917,5.80552982 Z" id="Fill-35" fill="#FFFFFF"/>
                    <polyline id="Fill-36" fill="#FFFFFF" points="27.9518972 3.21809404 27.8249012 4.1193207 29.3414625 4.33043088 29.2366403 5.07532912 27.720751 4.86421895 27.5030435 6.41213754 26.5737549 6.2832 27.1301186 2.32154386 29.9650198 2.71503719 29.8568379 3.48264982 27.9518972 3.21809404"/>
                    <polyline id="Fill-37" fill="#FFFFFF" points="35.1752174 9.01293474 34.4582609 8.65217684 34.3023715 5.56168421 34.2815415 5.55099509 33.0606324 7.94936702 32.4122134 7.62334877 34.2284585 4.05384982 35.1335573 4.50880561 35.2652569 7.20914526 35.2760079 7.21382175 36.3430435 5.11741754 36.9914625 5.44343579 35.1752174 9.01293474"/>
                    <polyline id="Fill-38" fill="#FFFFFF" points="38.8634783 7.69416421 38.3548221 8.32749474 39.5468379 9.27214596 39.0751383 9.86004772 37.8831225 8.91472842 37.3274308 9.60751719 38.8399605 10.8073712 38.3534783 11.4139789 36.1078656 9.63223579 38.6162055 6.50566737 40.8624901 8.28741053 40.3760079 8.89335018 38.8634783 7.69416421"/>
                    <polyline id="Fill-39" fill="#FFFFFF" points="41.3052964 14.8765867 40.7334783 14.1517305 42.4220553 12.0038849 42.414664 11.9945319 39.9298419 13.1335916 39.365415 12.4180884 41.8878656 9.13719579 42.4818577 9.88877474 40.7314625 12.0339481 40.7388538 12.042633 43.2713834 10.8888758 43.8075889 11.5676351 42.0928063 13.7582372 42.0995257 13.7669221 42.2601186 13.6867537 44.613913 12.5897825 45.092332 13.195054 41.3052964 14.8765867"/>
                    <polyline id="Fill-40" fill="#FFFFFF" points="44.0864427 21.4236744 43.8149802 20.5304646 45.4034387 20.0534625 45.0446245 18.8703102 43.4554941 19.3473123 43.1847036 18.4541025 47.0355731 17.2983411 47.3070356 18.1915509 45.8025692 18.6424982 46.1613834 19.8263186 47.6658498 19.3740351 47.9373123 20.2672449 44.0864427 21.4236744"/>
                    <path d="M45.9900395,24.162094 L47.3641502,23.6242975 L45.921502,23.3136449 L45.9900395,24.162094 Z M44.5487352,25.751433 L44.4674308,24.7466554 L45.2710672,24.4360028 L45.1662451,23.1459593 L44.3222925,22.96224 L44.2557708,22.143186 L48.3686957,23.0991944 L48.4560474,24.1801319 L44.5487352,25.751433 L44.5487352,25.751433 Z" id="Fill-41" fill="#FFFFFF"/>
                    <polyline id="Fill-42" fill="#FFFFFF" points="44.3142292 28.0482582 44.4177075 27.0448168 48.5433992 26.2578302 48.4412648 27.2499144 45.4995257 27.7589839 48.2732806 28.873993 48.1926482 29.6569712 44.3142292 28.0482582"/>
                    <polyline id="Fill-43" fill="#FFFFFF" points="46.8165217 31.8462372 46.037747 31.6064 45.5868775 33.0547761 44.8638735 32.8316407 45.315415 31.3839326 44.4647431 31.1220491 43.891581 32.9592421 43.1464032 32.729426 43.9970751 30.0010274 47.8392095 31.1855158 46.9885375 33.9139144 46.2433597 33.6840982 46.8165217 31.8462372"/>
                    <polyline id="Fill-44" fill="#FFFFFF" points="41.3052964 36.2160842 41.6950198 35.5179509 44.8081028 35.4805389 44.8188538 35.4604968 42.4549802 34.1564239 42.807747 33.5244295 46.3260079 35.4645053 45.8334783 36.3463579 43.1148221 36.3744168 43.1094466 36.3837698 45.1763241 37.5241656 44.8235573 38.1568281 41.3052964 36.2160842"/>
                    <path d="M16.6136364,36.9329235 C17.191502,36.9329235 24.1232016,36.8748014 24.1232016,36.8748014 C24.8166403,37.6310568 25.1055731,37.8628772 25.1055731,37.8628772 C25.1626877,37.9797895 26.0294862,36.9910456 26.0294862,36.9910456 C28.3980632,36.9910456 34.116917,36.8748014 34.116917,36.8748014 C34.116917,36.9329235 34.116917,24.8996435 34.116917,24.8996435 C34.0591304,24.8408533 35.445336,23.7365333 35.445336,23.7365333 C32.8456126,23.6202891 16.6136364,23.7365333 16.6136364,23.7365333 C15.2274308,23.6784112 15.2274308,23.7953235 15.2274308,23.7953235 C16.3247036,24.8408533 16.6136364,24.8996435 16.6136364,24.8996435 L16.6136364,36.9329235 Z" id="Stroke-45" stroke="#FFFFFF" stroke-width="0.64" stroke-linecap="round"/>
                    <path d="M11.8939526,44.343826 C11.6863241,44.343826 11.4807115,44.2756828 11.2845059,44.1420688 C10.5944269,43.6717474 10.7227668,42.8279747 11.1554941,42.1999888 C11.4773518,41.7323396 11.9127668,41.4644435 12.3495257,41.4644435 C12.5793281,41.4644435 12.803083,41.5372632 13.0147431,41.6815663 C13.4696443,41.9922189 13.5986561,42.49728 13.3681818,43.0678119 L13.3352569,43.1479804 L12.8810277,42.9475593 L12.9065613,42.8754077 C13.0443083,42.4759018 12.994585,42.2220351 12.7452964,42.0516772 C12.6431621,41.9815298 12.5349802,41.9461221 12.4247826,41.9461221 C12.0256522,41.9461221 11.6856522,42.3943972 11.5909091,42.5313516 C11.4524901,42.7317726 11.3516996,42.9582484 11.3207905,43.1366232 C11.2986166,43.2655607 11.2757708,43.582226 11.5445455,43.7652772 C11.8092885,43.9456561 12.0975494,43.8915425 12.4126877,43.6122891 L12.4731621,43.5575074 L12.8098024,43.9122526 L12.7452964,43.9697067 C12.4657708,44.2175607 12.1795257,44.343826 11.8939526,44.343826" id="Fill-46" fill="#FFFFFF"/>
                    <path d="M14.9270751,43.4138723 C14.482253,43.4138723 14.1711462,43.9590175 14.0864822,44.1260351 C13.9695652,44.3571874 13.907747,44.6090498 13.9158103,44.8174877 C13.9258893,45.0713544 14.035415,45.2524014 14.2430435,45.3559523 C14.3263636,45.3980407 14.4116996,45.4187509 14.4963636,45.4187509 C14.8531621,45.4187509 15.173004,45.0379509 15.3383004,44.7119326 C15.4652964,44.4600702 15.5304743,44.21088 15.5203953,44.0091228 C15.5076285,43.7699537 15.3900395,43.5775495 15.1998814,43.4820154 C15.10917,43.4365867 15.0171146,43.4138723 14.9270751,43.4138723 Z M14.5333202,45.877047 C14.3666798,45.877047 14.2000395,45.8369628 14.0401186,45.7567944 C13.6880237,45.5810919 13.472332,45.2884772 13.4158893,44.9123537 C13.3688538,44.5950204 13.4387352,44.229586 13.6134387,43.8848618 C13.8432411,43.4312421 14.2974704,42.9468912 14.8840711,42.9468912 C15.055415,42.9468912 15.2267589,42.9889796 15.3933992,43.0724884 C16.1446245,43.4486119 16.1419368,44.2997333 15.8227668,44.9317277 C15.6010277,45.3679775 15.1313439,45.877047 14.5333202,45.877047 L14.5333202,45.877047 Z" id="Fill-47" fill="#FFFFFF"/>
                    <polyline id="Fill-48" fill="#FFFFFF" points="18.1711858 47.3534821 17.7250198 47.2024982 17.2197233 44.734647 16.5162055 46.7943074 16.0814625 46.6473319 17.0268775 43.8808533 17.5650988 44.0625684 18.0294071 46.3507088 18.6825296 44.4400281 19.1172727 44.5870035 18.1711858 47.3534821"/>
                    <polyline id="Fill-49" fill="#FFFFFF" points="21.4294071 48.0482751 20.9664427 47.9607579 20.1204743 45.5857684 19.7112648 47.723593 19.2610672 47.63808 19.8100395 44.7680505 20.3690909 44.8736056 21.1485375 47.0748968 21.5281818 45.0927326 21.9790514 45.1782456 21.4294071 48.0482751"/>
                    <polyline id="Fill-50" fill="#FFFFFF" points="24.4967984 48.2894484 22.5387747 48.1718681 22.716166 45.2550737 24.6338735 45.3706498 24.6056522 45.8336225 23.2026482 45.7501137 23.1603162 46.4569319 24.2723715 46.5237389 24.2454941 46.9673375 23.1334387 46.8998625 23.0816996 47.7396267 24.5250198 47.8264758 24.4967984 48.2894484"/>
                    <path d="M26.3674704,48.2600533 C25.584664,48.2600533 25.1882213,47.5298526 25.1425296,46.8056646 C25.1001976,46.1275733 25.3743478,45.3152 26.2875099,45.2590821 C26.8445455,45.2263467 27.2537549,45.5483565 27.4244269,46.1355902 L27.4486166,46.2184309 L26.966166,46.3386835 L26.9413043,46.2658639 C26.8022134,45.8643537 26.6086957,45.6946639 26.3036364,45.715374 C25.6747036,45.7541221 25.6760474,46.5558063 25.691502,46.80032 C25.7062846,47.0434975 25.7674308,47.2833347 25.8534387,47.4430035 C25.9837945,47.6841768 26.1894071,47.8137825 26.4185375,47.8017572 C26.7397233,47.7817151 26.9325692,47.5686007 27.0078261,47.1497207 L27.0226087,47.0688842 L27.507747,47.14304 L27.4929644,47.2278849 C27.3760474,47.8658919 27.0152174,48.2226414 26.4474308,48.2573811 C26.4198814,48.2587172 26.3936759,48.2600533 26.3674704,48.2600533" id="Fill-51" fill="#FFFFFF"/>
                    <polyline id="Fill-52" fill="#FFFFFF" points="28.9839921 47.9213418 28.5405138 45.5082723 27.7650988 45.6492351 27.6804348 45.1882667 29.7372332 44.8141474 29.8218972 45.2751158 29.0471542 45.4160786 29.4913043 47.8291481 28.9839921 47.9213418"/>
                    <polyline id="Fill-53" fill="#FFFFFF" points="30.9460474 47.5011256 30.1766798 44.6812014 30.673913 44.5469193 31.4439526 47.3668435 30.9460474 47.5011256"/>
                    <path d="M33.0277075,46.8317193 C32.3907115,46.8317193 31.9438735,46.247826 31.7543874,45.7487775 C31.6146245,45.3813389 31.5843874,45.0092239 31.6690514,44.7005754 C31.768498,44.3404856 32.0177866,44.0752618 32.3913834,43.9356351 C32.9027273,43.7438989 33.404664,43.934967 33.7372727,44.4406961 L33.7849802,44.5135158 L33.3589723,44.7687186 L33.3139526,44.7072561 C33.0606324,44.3618639 32.8274704,44.2596491 32.5418972,44.3672084 C31.9364822,44.5936842 32.214664,45.420087 32.2771542,45.5830961 C32.3631621,45.8115761 32.4928458,46.0233544 32.6218577,46.1502877 C32.7609486,46.286574 32.9249012,46.3613979 33.0848221,46.3613979 C33.1473123,46.3613979 33.2084585,46.3507088 33.2682609,46.3279944 C33.5699605,46.2150905 33.6909091,45.9545432 33.63917,45.5316547 L33.6290909,45.4508182 L34.1149012,45.3800028 L34.1249802,45.4655158 C34.2029249,46.1095354 33.9623715,46.5558063 33.4301976,46.7548912 C33.2958103,46.8056646 33.1600791,46.8317193 33.0277075,46.8317193" id="Fill-54" fill="#FFFFFF"/>
                    <path d="M35.72083,45.61984 C35.6274308,45.61984 35.5367194,45.6044744 35.4527273,45.5737432 C35.1409486,45.4608393 34.9857312,45.2116491 34.8405929,44.9444211 L33.9704348,43.3363761 L34.4239921,43.0931986 L35.2948221,44.7019116 C35.3579842,44.8194919 35.4654941,45.0165726 35.6059289,45.0873881 C35.7282213,45.1501867 35.9136759,45.1234639 36.1018182,45.0232533 C36.2637549,44.9364042 36.3766403,44.8054625 36.4035178,44.6731846 C36.4398024,44.5014905 36.3524506,44.3391495 36.2671146,44.182153 L35.3969565,42.57344 L35.8014625,42.3569853 L36.6716206,43.9650302 C36.8060079,44.2148884 36.921581,44.4640786 36.8570751,44.7747312 C36.7845059,45.1281404 36.5150593,45.3379144 36.3027273,45.4521544 C36.0937549,45.5637221 35.8982213,45.61984 35.72083,45.61984" id="Fill-55" fill="#FFFFFF"/>
                    <polyline id="Fill-56" fill="#FFFFFF" points="38.5342292 44.0498751 37.113083 42.0449965 36.4686957 42.4959439 36.1979051 42.1138077 37.9059684 40.9159579 38.1774308 41.2987621 37.5343874 41.7490414 38.9555336 43.75392 38.5342292 44.0498751"/>
                    <path d="M18.233004,29.7337993 C18.1443083,28.8031775 18.1315415,27.7703411 18.1765613,26.8811396 C18.1765613,26.8811396 18.1785771,26.6646849 18.1873123,26.5571256 C18.1980632,26.4235116 18.2195652,26.2858891 18.158419,26.2130695 C18.1301976,26.179666 18.0871937,26.1629642 18.0294071,26.1629642 C17.8452964,26.1629642 17.4347431,26.4956632 17.3117787,26.6593404 L17.3070751,26.6646849 L17.3070751,26.6713656 C17.3070751,26.8377151 17.2748221,27.0207663 17.244585,27.1978049 C17.2136759,27.3768477 17.180751,27.5625712 17.180751,27.731593 C17.180751,27.8211144 17.17,27.9246653 17.1579051,28.0348968 C17.1243083,28.3395368 17.0866798,28.6849291 17.2539921,28.9554975 L17.2586957,28.9628463 L17.2667589,28.9648505 C17.4065217,29.0009263 17.5079842,28.9835565 17.5698024,28.9134091 C17.6759684,28.7931565 17.6430435,28.5493109 17.6141502,28.3335242 C17.5966798,28.2045867 17.5792095,28.0716407 17.6094466,28.0369011 C17.6195257,28.0248758 17.6383399,27.9961488 17.6685771,28.0108463 L17.6927668,28.0242077 C17.7216601,28.0242077 17.7283794,28.0529347 17.7418182,28.0689684 C17.7875099,28.1244182 17.7599605,28.274734 17.7303953,28.4330667 C17.6786561,28.7143242 17.6134783,29.064393 17.8977075,29.16928 C17.9192095,29.3396379 17.9232411,29.5420632 17.9279447,29.7565137 C17.934664,30.0778554 17.9413834,30.4098863 18.009249,30.6376982 C18.0280632,30.701833 18.0179842,30.8534849 18.0065613,31.0298554 C17.9823715,31.3906133 17.9722925,31.8856533 18.0750988,32.2103354 C18.0750988,32.2103354 18.1026482,32.2390625 18.1268379,32.2390625 C18.1516996,32.2390625 18.1698419,32.2049909 18.1698419,32.2049909 C18.3694071,31.6925811 18.3331225,30.7906863 18.233004,29.7337993" id="Fill-57" fill="#FFFFFF"/>
                    <path d="M31.9190119,25.4133895 C31.917668,25.4133895 31.9149802,25.4133895 31.9136364,25.4127214 C31.1187352,25.3004856 18.3183399,25.3893389 18.1893281,25.390007 L18.1557312,25.3906751 L17.5724901,24.6651509 L17.6820158,24.5783018 L17.7162846,24.6210582 L17.7142688,24.5990119 C18.2269565,24.552247 32.5291304,24.5281965 33.1372332,24.5268604 L33.2917787,24.5268604 L33.1903162,24.6424365 C33.1096838,24.7359663 32.0668379,25.4133895 31.9190119,25.4133895" id="Fill-58" fill="#FFFFFF"/>
                    <path d="M18.6603557,26.2812126 C19.8947036,26.5050161 22.1947431,26.1141951 22.1947431,26.1141951 C23.7092885,25.723374 25.0558498,26.6159158 25.0558498,26.6159158 C25.2802767,25.723374 25.1680632,35.4284295 25.1680632,35.4284295 C23.5970751,35.1498442 22.3633992,35.0376084 22.3633992,35.0376084 C18.996996,35.5961151 18.6603557,34.8705909 18.6603557,34.8705909 C18.604585,34.8705909 18.6603557,26.2812126 18.6603557,26.2812126 Z M25.7990119,26.3647214 C26.2740711,25.9050891 27.9572727,25.8209123 27.9572727,25.8209123 C28.7777075,25.7794919 30.0295257,26.1556154 30.0295257,26.1556154 C31.3243478,26.2812126 32.1877866,26.1556154 32.1877866,26.1556154 C32.4034783,25.9465095 32.4464822,34.6895439 32.4464822,34.6895439 C30.8929644,35.6515649 29.7271542,35.024247 29.7271542,35.024247 C28.633913,34.7590232 27.5688933,35.1491761 27.5688933,35.1491761 C26.3170751,35.6936533 25.9575889,35.5961151 25.9575889,35.5961151 C25.8279051,35.5961151 25.7990119,26.3647214 25.7990119,26.3647214 Z" id="Stroke-59" stroke="#FFFFFF" stroke-width="0.41"/>
                    <path d="M19.5580632,33.9225993 C20.3435573,34.2573025 21.0168379,33.9780491 21.802332,33.8671495 C22.7558103,33.7555818 23.7092885,33.8110316 24.5512253,34.2018526 M19.5022925,32.5837867 C20.006917,32.7514723 20.6136759,32.7668379 21.0625296,32.5991523 M22.0543083,32.4167691 C23.1240316,32.1234863 24.1588142,32.3052014 25.1116206,32.9184898 M19.6145059,31.0779565 C20.5122134,31.6357951 21.409249,31.0779565 22.3069565,30.9663888 C23.3726482,30.8548211 24.0466008,30.9102709 24.9436364,31.4687775 M24.7192095,27.34144 C23.5802767,26.7869418 22.5871542,26.7107818 21.409249,27.1183046 M19.3336364,27.0060688 C19.6702767,27.1737544 20.1191304,27.2298723 20.4557708,27.1183046 M25.8971146,27.1183046 C27.6979051,25.81824 29.6660079,27.0454849 31.3949012,27.1183046 M26.2337549,30.8548211 C28.0143874,30.1994442 28.8637154,31.2008814 29.6559289,31.2456421 C30.525415,31.2937432 30.5811858,31.2463102 31.1704743,31.0498975 M26.2619763,32.6118456 C26.7948221,32.2210246 27.7550198,32.3533025 28.1763241,32.4655382 C29.2984585,32.7160646 30.4696443,33.5317782 31.598498,32.5837867 M26.3741897,34.5358877 C26.5986166,34.2292435 27.0259684,34.0415158 27.3626087,33.958007 C27.8679051,33.8738302 28.2798024,33.8604688 28.8133202,33.9439775 M29.4872727,34.0061081 C30.0765613,34.0896168 30.5811858,34.2573025 31.1704743,34.1731256" id="Stroke-60" stroke="#FFFFFF" stroke-width="0.41" stroke-linecap="round"/>
                    <path d="M33.3999605,36.2862316 C33.68083,36.242807 33.266917,35.8559944 33.5477866,35.7631326 C33.5477866,35.7631326 32.937668,35.5540267 33.1056522,35.052306 C32.6010277,34.8846204 32.895336,35.6796239 32.5586957,35.6796239 C32.3900395,35.6796239 32.1803953,35.6375354 32.1803953,35.4705179 C31.3384585,35.8052211 30.7706719,35.7424225 29.9294071,35.5747368 C29.4906324,35.5747368 28.761581,35.4878877 28.3093676,35.6375354 C28.3093676,35.9722386 28.5405138,35.9929488 28.70917,36.1606344 C29.9435178,36.1606344 32.1656126,36.4752954 33.3999605,36.2862316" id="Fill-61" fill="#FFFFFF"/>
                    <path d="M18.6556522,36.5314133 C18.2907905,36.5314133 17.9958103,36.5133754 17.7518972,36.4759635 C17.6880632,36.4659425 17.6416996,36.4398877 17.6141502,36.3964632 C17.5671146,36.3236435 17.5933202,36.2341221 17.6168379,36.1552898 C17.6564822,36.0190035 17.6430435,36.0149951 17.605415,36.0023018 L17.372253,35.9248056 L17.6047431,35.8439691 C17.6235573,35.8372884 18.073083,35.6762835 17.9501186,35.309513 L17.923913,35.2300126 L18.0032016,35.2032898 C18.0542688,35.1865881 18.0992885,35.1779032 18.1416206,35.1779032 C18.3653755,35.1779032 18.4009881,35.4023747 18.4251779,35.5506863 C18.4527273,35.7203761 18.4722134,35.7638007 18.5219368,35.7638007 C18.5649407,35.7638007 18.7786166,35.7584561 18.7786166,35.6595818 L18.7786166,35.5359888 L18.8941897,35.5820856 C19.2603953,35.7270568 19.5762055,35.7925277 19.9162055,35.7925277 C20.2051383,35.7925277 20.496087,35.7464309 20.8723715,35.671607 C20.9859289,35.6696028 21.0994862,35.6649263 21.2211067,35.6602498 C21.3649012,35.6542372 21.5194466,35.6475565 21.6726482,35.6475565 C21.9790514,35.6475565 22.2014625,35.6742793 22.3728063,35.7303972 L22.4305929,35.7497712 L22.4305929,35.8098975 C22.4305929,36.0691088 22.2935178,36.1613025 22.1718972,36.242807 C22.1268775,36.2735382 22.0838735,36.3022653 22.0462451,36.3396772 L22.0213834,36.3643958 L21.9864427,36.3643958 C21.5893281,36.3643958 21.0739526,36.4011396 20.5283399,36.4398877 C19.8953755,36.4846484 19.241581,36.5314133 18.6556522,36.5314133" id="Fill-62" fill="#FFFFFF"/>
                    <path d="M33.5605534,27.5772688 C33.5518182,27.3067004 33.4402767,26.9933754 33.4315415,26.722807 C33.3253755,26.5905291 32.9880632,26.3406709 32.852332,26.3446793 C32.5795257,26.3533642 32.7166008,26.6593404 32.7441502,26.9018498 C32.9107905,28.0429137 32.5116601,31.0993347 32.9228854,31.2129067 C33.0532411,31.1614653 32.947747,30.1105909 32.9900791,29.9482498 C33.0713834,29.6409375 32.9826877,29.0984646 33.0169565,28.7470596 C33.4214625,28.5987481 32.9087747,27.8344758 33.181581,27.8264589 C33.4503557,27.6821558 32.9712648,28.7256814 33.5343478,28.5613361 C33.7063636,28.2627088 33.5686166,27.8491733 33.5605534,27.5772688" id="Fill-63" fill="#FFFFFF"/>
                    <path d="M8.73786561,40.4964098 C8.30715415,40.4964098 7.97051383,40.1617067 7.97051383,39.7341418 C7.96782609,39.5283761 8.04509881,39.3359719 8.18889328,39.1916688 C8.33268775,39.0460295 8.52822134,38.9658611 8.73786561,38.9658611 C9.16588933,38.9658611 9.51462451,39.3105853 9.51462451,39.7341418 C9.51462451,40.1543579 9.16588933,40.4964098 8.73786561,40.4964098" id="Fill-64" fill="#FFFFFF"/>
                    <path d="M41.2743874,40.8244323 C40.8443478,40.8244323 40.5063636,40.4897291 40.5063636,40.0621642 C40.5043478,39.8563986 40.5822925,39.6639944 40.725415,39.5196912 C40.8698814,39.3740519 41.0647431,39.2938835 41.2743874,39.2938835 C41.703083,39.2938835 42.0511462,39.6379396 42.0511462,40.0621642 C42.0511462,40.4830484 41.703083,40.8244323 41.2743874,40.8244323" id="Fill-65" fill="#FFFFFF"/>
                    <path d="M7.10841897,25.7427481 C7.10841897,15.9027425 15.1313439,7.92665263 25.0276285,7.92665263 C34.923913,7.92665263 42.9468379,15.9027425 42.9468379,25.7427481 C42.9468379,35.5820856 34.923913,43.5588435 25.0276285,43.5588435 C15.1313439,43.5588435 7.10841897,35.5820856 7.10841897,25.7427481 Z" id="Stroke-66" stroke="#FFFFFF" stroke-width="0.48"/>
                    <path d="M21.4529249,29.6589754 C21.4529249,30.0604856 21.4697233,30.0685025 21.7216996,30.102574 L21.8352569,30.1192758 C21.8648221,30.1439944 21.8648221,30.2275032 21.8271937,30.2401965 C21.6289723,30.2315116 21.4314229,30.2275032 21.2466403,30.2275032 C21.0316206,30.2275032 20.8387747,30.2315116 20.6365217,30.2401965 C20.5988933,30.2275032 20.5988933,30.1439944 20.6284585,30.1192758 L20.7420158,30.102574 C20.9939921,30.0685025 21.0107905,30.0604856 21.0107905,29.6589754 L21.0107905,28.3328561 C21.0107905,28.0569432 20.9980237,27.9567326 20.8092095,27.9360225 L20.6069565,27.9153123 C20.5820949,27.8946021 20.5820949,27.8311354 20.6029249,27.8144337 C20.952332,27.7476267 21.2466403,27.6474161 21.4193281,27.551214 C21.4441897,27.5558905 21.4609881,27.5679158 21.4650198,27.588626 C21.4569565,27.6768112 21.4529249,27.9273375 21.4529249,28.0950232 L21.4529249,29.6589754" id="Fill-67" fill="#FFFFFF"/>
                    <path d="M23.4761265,27.551214 C23.7751383,27.551214 24.0062846,27.6888365 24.161502,27.8772323 C24.3133597,28.0736449 24.3886166,28.3375326 24.3805534,28.6802526 C24.3677866,29.1151663 24.2045059,29.6255719 23.7079447,30.0183972 C23.3713043,30.2903018 22.9587352,30.4279242 22.6852569,30.4786975 C22.6476285,30.4619958 22.6267984,30.3871719 22.6563636,30.3531004 C22.9043083,30.2736 23.1105929,30.1566877 23.2530435,30.0477923 C23.5903557,29.7885811 23.8503953,29.3743775 23.8712253,28.6094372 C23.8799605,28.1284267 23.7496047,27.7188996 23.438498,27.7188996 C23.2530435,27.7188996 23.0722925,27.8946021 23.0642292,28.2453389 C23.0514625,28.5800421 23.2281818,28.9481488 23.4888933,28.9481488 C23.5567589,28.9481488 23.5943874,28.9394639 23.6279842,28.931447 C23.661581,28.9434723 23.6736759,28.9895691 23.661581,29.0276491 C23.5520553,29.102473 23.4216996,29.140553 23.2617787,29.140553 C22.9043083,29.140553 22.5925296,28.8686484 22.6019368,28.4003312 C22.6227668,27.8732239 23.0259289,27.551214 23.4761265,27.551214" id="Fill-68" fill="#FFFFFF"/>
                    <path d="M27.7254545,29.8680814 C28.0278261,29.8680814 28.0997233,29.8346779 28.2300791,29.6041937 C28.2589723,29.5874919 28.3181028,29.5961768 28.3355731,29.6295804 C28.2757708,29.9388968 28.1924506,30.1566877 28.1292885,30.2401965 C28.0493281,30.2361881 27.964664,30.2315116 27.8766403,30.2315116 C27.7886166,30.2275032 27.6958893,30.2275032 27.5991304,30.2275032 L26.9050198,30.2275032 C26.66917,30.2275032 26.530751,30.2315116 26.4427273,30.2401965 C26.4171937,30.2234947 26.4044269,30.1981081 26.4171937,30.1647046 C26.6443083,29.9642835 26.7914625,29.8346779 27.0481423,29.5667818 C27.3679842,29.2407635 27.6582609,28.8345768 27.6582609,28.3956547 C27.6582609,28.0616196 27.4647431,27.8184421 27.157668,27.8184421 C26.9177866,27.8184421 26.7706324,27.969426 26.6402767,28.1865488 C26.5892095,28.1945656 26.5394862,28.1738554 26.530751,28.1237502 C26.6859684,27.7563116 27.0185771,27.551214 27.4096443,27.551214 C27.8598419,27.551214 28.1413834,27.8518456 28.1413834,28.2453389 C28.1413834,28.512567 28.0237945,28.7804632 27.6448221,29.1779649 L27.3001186,29.5373867 C27.1193676,29.7257825 27.1025692,29.7805642 27.1025692,29.8099593 C27.1025692,29.8426947 27.1240711,29.8680814 27.2329249,29.8680814 L27.7254545,29.8680814" id="Fill-69" fill="#FFFFFF"/>
                    <path d="M29.3031621,28.9187537 C29.3031621,29.3115789 29.3448221,30.1192758 29.7110277,30.1192758 C30.0772332,30.1192758 30.1188933,29.3115789 30.1188933,28.9187537 C30.1188933,28.5259284 30.0772332,27.7188996 29.7110277,27.7188996 C29.3448221,27.7188996 29.3031621,28.5259284 29.3031621,28.9187537 Z M30.6154545,28.9187537 C30.6154545,29.5754667 30.3587747,30.2862933 29.7110277,30.2862933 C29.0632806,30.2862933 28.8066008,29.5754667 28.8066008,28.9187537 C28.8066008,28.2874274 29.0632806,27.551214 29.7110277,27.551214 C30.3587747,27.551214 30.6154545,28.2874274 30.6154545,28.9187537 L30.6154545,28.9187537 Z" id="Fill-70" fill="#FFFFFF"/>
                </g>
            </g>
        </g>
    </g>
</svg>